<?xml version="1.0" encoding="UTF-8" standalone="no"?>
<!-- Created with Inkscape (http://www.inkscape.org/) -->

<svg
   version="1.1"
   id="svg1"
   width="64"
   height="64"
   viewBox="0 0 64 64"
   xmlns="http://www.w3.org/2000/svg"
   xmlns:svg="http://www.w3.org/2000/svg">
  <defs
     id="defs1" />
  <g
     id="g1">
    <g
       id="g2">
      <path
         style="fill:#cecece"
         d="m 6.7993669,31.380645 c 0,-4.655484 0.028808,-6.56 0.064017,-4.232258 0.035209,2.327742 0.035209,6.136774 0,8.464516 -0.035209,2.327742 -0.064017,0.423226 -0.064017,-4.232258 z M 43.305087,38.4 c 0,-0.794839 0.04065,-1.12 0.09034,-0.722581 0.04968,0.39742 0.04968,1.047742 0,1.445162 C 43.345738,39.52 43.305087,39.194839 43.305087,38.4 Z M 8.8447275,32.729395 c 0.4646001,-0.08722 1.1757115,-0.086 1.5802465,0.0027 0.404536,0.08872 0.02441,0.160088 -0.8447271,0.158589 -0.8691358,-0.0015 -1.2001195,-0.07409 -0.7355194,-0.161316 z m 7.3034205,-1.209304 c 0.135803,-0.114545 0.358025,-0.114545 0.493827,0 0.135803,0.114544 0.02469,0.208262 -0.246913,0.208262 -0.271605,0 -0.382716,-0.09372 -0.246914,-0.208262 z m 1.682772,-1.25139 c 0.192191,-0.104689 0.458858,-0.0978 0.592592,0.0153 0.133735,0.113104 -0.02351,0.198759 -0.349438,0.190344 -0.325926,-0.0084 -0.435345,-0.100955 -0.243154,-0.205643 z m 2.467679,-0.0059 c 0.245711,-0.09876 0.601267,-0.09501 0.790124,0.0083 0.188857,0.103347 -0.01218,0.184153 -0.446748,0.17957 -0.434568,-0.0046 -0.589087,-0.08914 -0.343376,-0.187903 z m 7.713747,0.01 c 0.142592,-0.119276 0.312963,-0.104607 0.378601,0.0326 0.06564,0.137205 -0.05103,0.234794 -0.25926,0.216865 -0.230112,-0.01981 -0.276918,-0.117653 -0.119341,-0.249462 z M 24.45679,27.382456 c 0.142593,-0.119275 0.312963,-0.104607 0.378601,0.0326 0.06564,0.137204 -0.05103,0.234793 -0.259259,0.216865 -0.230113,-0.01981 -0.276919,-0.117653 -0.119342,-0.249463 z m 6.506173,0.0086 c 0.135802,-0.114544 0.358025,-0.114544 0.493827,0 0.135803,0.114545 0.02469,0.208263 -0.246913,0.208263 -0.271605,0 -0.382717,-0.09372 -0.246914,-0.208263 z m 3.567901,-0.0086 c 0.142593,-0.119275 0.312963,-0.104607 0.378601,0.0326 0.06564,0.137204 -0.05103,0.234793 -0.259259,0.216865 -0.230112,-0.01981 -0.276919,-0.117653 -0.119342,-0.249463 z"
         id="path8" />
      <path
         style="fill:#e0a2a4"
         d="m 38.567901,38.296774 0.04938,-1.341935 2.271605,-0.01965 2.271605,-0.01965 -2.210167,0.135758 -2.210167,0.135759 -0.110821,1.225824 c -0.10729,1.186774 -0.109247,1.183075 -0.06144,-0.116112 z"
         id="path7" />
      <path
         style="fill:#b5b5b4"
         d="m 24.45679,39.769553 c 0.142593,-0.119276 0.312963,-0.104607 0.378601,0.0326 0.06564,0.137204 -0.05103,0.234793 -0.259259,0.216864 -0.230113,-0.01981 -0.276919,-0.117652 -0.119342,-0.249462 z m 5.240555,-3.640521 c 7.18e-4,-1.816774 0.03545,-2.508637 0.07717,-1.537473 0.04173,0.971165 0.04114,2.457616 -0.0013,3.303226 -0.04244,0.84561 -0.07658,0.05102 -0.07587,-1.765753 z m 7.713926,-2.477419 c 3.08e-4,-3.179355 0.03131,-4.425419 0.06891,-2.769032 0.03759,1.656387 0.03734,4.257677 -5.61e-4,5.780645 -0.0379,1.522968 -0.06865,0.167742 -0.06834,-3.011613 z m -22.84337,3.649123 c 0.135803,-0.114545 0.358025,-0.114545 0.493827,0 0.135803,0.114544 0.02469,0.208262 -0.246913,0.208262 -0.271605,0 -0.382716,-0.09372 -0.246914,-0.208262 z M 8.9442317,36.857281 c 0.5193275,-0.08534 1.3193273,-0.08431 1.7777783,0.0023 0.45845,0.0866 0.03355,0.156417 -0.9442322,0.155159 C 8.8,37.01347 8.4249043,36.942619 8.9442317,36.857281 Z M 33.223694,33.651613 c 0.004,-0.68129 0.0483,-0.910012 0.09838,-0.508271 0.05008,0.401742 0.04679,0.959161 -0.0073,1.23871 -0.05411,0.279549 -0.09509,-0.04915 -0.09106,-0.730439 z M 14.580247,29.859875 c 0.142593,-0.119275 0.312963,-0.104606 0.378601,0.0326 0.06564,0.137204 -0.05103,0.234794 -0.25926,0.216865 -0.230112,-0.01981 -0.276918,-0.117653 -0.119341,-0.249463 z m 5.718352,-4.139002 c 0.245711,-0.09876 0.601267,-0.09501 0.790124,0.0083 0.188857,0.103346 -0.01218,0.184153 -0.446748,0.17957 -0.434568,-0.0046 -0.589087,-0.08914 -0.343376,-0.187903 z M 8.0571235,23.229352 c 0.6832698,-0.08086 1.7499365,-0.08019 2.3703705,0.0015 0.620434,0.08168 0.0614,0.147833 -1.2423088,0.147016 -1.3037037,-8.16e-4 -1.8113315,-0.06764 -1.1280617,-0.1485 z m 11.9455925,0.0098 c 0.300259,-0.09491 0.744704,-0.09237 0.987654,0.0056 0.242951,0.09801 -0.0027,0.17566 -0.545926,0.17256 -0.543209,-0.0031 -0.741987,-0.08329 -0.441728,-0.178196 z"
         id="path6" />
      <path
         style="fill:#959595"
         d="m 39.859593,39.332577 c 0.683269,-0.08086 1.749936,-0.08019 2.37037,0.0015 0.620434,0.08167 0.0614,0.147832 -1.242309,0.147016 -1.303703,-8.16e-4 -1.811331,-0.06764 -1.128061,-0.148501 z M 11.495299,38.193548 c 0.004,-0.68129 0.0483,-0.910012 0.09838,-0.50827 0.05008,0.401741 0.04679,0.95916 -0.0073,1.238709 -0.05411,0.279549 -0.09509,-0.04915 -0.09106,-0.730439 z m 7.147302,-3.509677 c 0,-2.611613 0.03207,-3.68 0.07127,-2.374194 0.0392,1.305807 0.0392,3.442581 0,4.748388 -0.0392,1.305806 -0.07127,0.237419 -0.07127,-2.374194 z m 5.814189,2.608263 c 0.142593,-0.119276 0.312963,-0.104607 0.378601,0.0326 0.06564,0.137204 -0.05103,0.234794 -0.259259,0.216865 -0.230113,-0.01981 -0.276919,-0.117653 -0.119342,-0.249462 z M 17.003249,35.68172 c 0.0095,-0.481008 0.05628,-0.578848 0.119341,-0.249462 0.05706,0.298065 0.05004,0.654194 -0.01559,0.791398 -0.06564,0.137204 -0.112324,-0.106667 -0.103747,-0.541936 z m 10.927954,-6.984946 c 0.01607,-0.683324 0.164513,-0.832794 0.860387,-0.866307 l 0.840972,-0.0405 -0.779261,0.166208 c -0.525069,0.111992 -0.805723,0.394578 -0.860386,0.866308 -0.05721,0.493742 -0.0754,0.456689 -0.06171,-0.125708 z m -9.819712,-0.914201 c 0.272288,-0.105824 0.464115,-0.543058 0.517889,-1.180435 0.0744,-0.881802 0.08231,-0.865264 0.06135,0.128238 -0.01933,0.916296 -0.121173,1.148427 -0.517889,1.180435 -0.40485,0.03267 -0.415904,0.0096 -0.06135,-0.128238 z m 2.187108,0.0028 c 0.245711,-0.09876 0.601267,-0.09501 0.790124,0.0083 0.188857,0.103346 -0.01218,0.184153 -0.446748,0.17957 -0.434568,-0.0046 -0.589087,-0.08914 -0.343376,-0.187903 z m 16.297753,0.0059 c 0.192191,-0.104689 0.458858,-0.0978 0.592593,0.0153 0.133734,0.113104 -0.02351,0.198758 -0.349439,0.190343 -0.325926,-0.0084 -0.435345,-0.100954 -0.243154,-0.205643 z M 11.495299,24.567742 c 0.004,-0.68129 0.0483,-0.910012 0.09838,-0.508271 0.05008,0.401742 0.04679,0.959161 -0.0073,1.23871 -0.05411,0.279549 -0.09509,-0.04915 -0.09106,-0.730439 z"
         id="path5" />
      <path
         style="fill:#ca2c33"
         d="M 38.716049,38.193548 V 37.16129 h 2.271605 2.271605 v 1.032258 1.032258 h -2.271605 -2.271605 z"
         id="path4" />
      <path
         style="fill:#5e5e5e"
         d="m 8.0571235,39.332577 c 0.6832698,-0.08086 1.7499365,-0.08019 2.3703705,0.0015 0.620434,0.08167 0.0614,0.147832 -1.2423088,0.147016 -1.3037037,-8.16e-4 -1.8113315,-0.06764 -1.1280617,-0.148501 z m 10.9552225,0.02151 c 0.190123,-0.103857 0.501234,-0.103857 0.691358,0 0.190123,0.103856 0.03457,0.18883 -0.345679,0.18883 -0.380247,0 -0.535803,-0.08497 -0.345679,-0.18883 z m 9.517356,-0.259418 c -0.05493,-0.299224 -0.07089,-2.48245 -0.03546,-4.851613 l 0.06442,-4.30757 0.04166,4.617735 0.04166,4.617735 0.54321,0.172012 0.54321,0.172011 -0.549409,0.06187 c -0.302175,0.03403 -0.594353,-0.182954 -0.649284,-0.482177 z m 7.750133,0.268774 c -0.07243,-0.151398 -0.130326,-0.476559 -0.128662,-0.722581 0.002,-0.297349 0.05168,-0.288233 0.148148,0.02719 0.07982,0.260976 0.367346,0.560833 0.638951,0.66635 l 0.493827,0.191849 -0.510288,0.05623 c -0.280659,0.03093 -0.569548,-0.06764 -0.641976,-0.219039 z M 12.81431,38.090323 c -0.245703,-0.654888 -0.238716,-0.669492 0.07458,-0.155894 0.190123,0.311678 0.345679,0.636839 0.345679,0.72258 0,0.339834 -0.16221,0.121106 -0.420259,-0.566686 z m 19.201285,-3.234409 c 0.0095,-0.481009 0.05628,-0.578849 0.119341,-0.249462 0.05706,0.298064 0.05004,0.654193 -0.01559,0.791397 -0.06564,0.137205 -0.112324,-0.106666 -0.103747,-0.541935 z m -8.973369,-0.275269 c 0.05071,-0.170322 0.969661,-0.309677 2.042113,-0.309677 1.862155,0 1.95421,-0.04181 2.04539,-0.929033 0.08414,-0.818678 0.09163,-0.806417 0.06312,0.103226 -0.03192,1.01826 -0.0609,1.035058 -2.13759,1.23871 -1.157879,0.113548 -2.063744,0.0671 -2.013033,-0.103226 z m 13.121517,-0.963441 c 0.0095,-0.481008 0.05628,-0.578848 0.119341,-0.249462 0.05706,0.298064 0.05004,0.654193 -0.01559,0.791398 -0.06564,0.137204 -0.112324,-0.106667 -0.103747,-0.541936 z M 8.8395062,30.252509 c 0.4617284,-0.08693 1.2172838,-0.08693 1.6790128,0 0.461728,0.08693 0.08395,0.158055 -0.8395067,0.158055 -0.9234567,0 -1.3012345,-0.07113 -0.8395061,-0.158055 z M 24.246914,29.868478 c 0.135802,-0.114545 0.358024,-0.114545 0.493827,0 0.135802,0.114544 0.02469,0.208262 -0.246914,0.208262 -0.271605,0 -0.382716,-0.09372 -0.246913,-0.208262 z m 6.80287,0.01783 c 0.183553,-0.114516 0.372159,-0.663565 0.419123,-1.220109 0.07469,-0.885098 0.08237,-0.869414 0.06133,0.125162 -0.01723,0.814221 -0.13623,1.16064 -0.419124,1.220109 -0.285077,0.05993 -0.302151,0.02508 -0.06133,-0.125162 z m 3.48108,-0.02643 c 0.142593,-0.119275 0.312963,-0.104606 0.378601,0.0326 0.06564,0.137204 -0.05103,0.234794 -0.259259,0.216865 -0.230112,-0.01981 -0.276919,-0.117653 -0.119342,-0.249463 z m -1.938271,-0.286737 c 0,-0.08574 0.155555,-0.410902 0.345679,-0.72258 0.313295,-0.513598 0.320281,-0.498994 0.07458,0.155894 -0.258048,0.687792 -0.420257,0.90652 -0.420257,0.566686 z M 8.9442317,25.708894 c 0.5193275,-0.08534 1.3193273,-0.08431 1.7777783,0.0023 0.45845,0.0866 0.03355,0.156417 -0.9442322,0.155159 C 8.8,25.865083 8.4249043,25.794232 8.9442317,25.708894 Z"
         id="path3" />
      <path
         style="fill:#070706"
         d="m 13.494088,38.857983 c -0.612398,-0.804406 -1.049644,-2.015886 -1.049644,-2.908257 0,-0.825846 0.842546,-0.442396 1.301251,0.592209 C 14.455169,38.142152 16,37.721065 16,35.927461 16,35.110893 15.025942,34.27815 14.065095,34.27327 c -0.587223,-0.003 -1.42312,-1.758296 -1.42312,-2.988435 0,-2.238665 1.224785,-3.929078 2.487914,-3.433746 0.770346,0.302089 1.660234,1.851902 1.660234,2.891433 0,0.908323 -0.71503,0.795092 -1.185185,-0.187683 -0.451238,-0.943233 -1.147943,-1.06924 -1.652009,-0.298785 -0.520775,0.795995 -0.20339,1.887439 0.634044,2.180388 1.273068,0.445341 2.003621,1.055205 2.204667,1.840449 0.323091,1.261932 0.223642,2.771209 -0.260053,3.946659 -0.624708,1.518131 -2.126011,1.831704 -3.037499,0.634433 z m 9.675996,-0.02836 c -0.828569,-1.056047 -1.244331,-2.815075 -1.24342,-5.260727 0.0021,-5.666838 3.064481,-7.992182 4.722561,-3.585974 0.256716,0.6822 0.412503,1.698915 0.412503,2.69212 v 1.59593 h -1.942386 c -1.068313,0 -1.998101,0.11646 -2.066196,0.258801 -0.0681,0.142341 0.0062,0.784331 0.1651,1.426644 0.380059,1.536289 1.443988,2.02319 2.189556,1.002036 0.43544,-0.596392 0.591,-0.625738 0.984349,-0.185696 0.371507,0.415608 0.420059,0.641315 0.237086,1.102167 -0.723818,1.823068 -2.412225,2.289056 -3.459153,0.954699 z m 2.775088,-7.257794 c -0.127675,-0.695485 -1.070069,-1.842793 -1.513662,-1.842793 -0.337965,0 -1.320399,1.558388 -1.320399,2.094485 0,0.210614 0.663877,0.382935 1.475282,0.382935 1.245986,0 1.457175,-0.09864 1.358779,-0.634627 z m 7.310988,7.222152 c -0.769044,-1.029909 -1.137476,-2.81344 -1.118698,-5.415466 0.01662,-2.302576 0.403568,-3.756966 1.305369,-4.906357 0.77076,-0.982372 1.345252,-1.017881 2.163214,-0.133707 0.431095,0.465992 0.646464,0.529692 0.698009,0.206452 0.041,-0.257114 0.289362,-0.46748 0.551913,-0.46748 h 0.477366 v 5.574194 5.574193 h -0.477366 c -0.262551,0 -0.512564,-0.220725 -0.555584,-0.490501 -0.05547,-0.347865 -0.216644,-0.287829 -0.55424,0.206452 -0.638018,0.934134 -1.730522,0.869295 -2.489983,-0.14778 z m 2.411452,-2.171203 c 1.486546,-2.672838 -0.122391,-8.575327 -1.677809,-6.155154 -1.384602,2.154387 -0.820992,7.070749 0.813997,7.100487 0.184065,0.0033 0.572781,-0.422052 0.863812,-0.945333 z M 6.9135802,31.380645 v -7.845161 h 2.271605 2.2716048 v 1.032258 C 11.45679,25.587856 11.437037,25.6 9.7777778,25.6 H 8.0987654 v 2.477419 2.47742 h 1.5802469 c 1.5539097,0 1.5802467,0.0172 1.5802467,1.032258 0,1.015054 -0.02634,1.032258 -1.5802467,1.032258 H 8.0987654 v 2.270968 2.270967 h 1.6790124 c 1.6592592,0 1.6790122,0.01214 1.6790122,1.032258 v 1.032258 H 9.1851852 6.9135802 Z M 18.765432,34.683871 V 30.141935 H 18.17284 c -0.500412,0 -0.592593,-0.160573 -0.592593,-1.032258 0,-0.871684 0.09218,-1.032258 0.592593,-1.032258 0.569952,0 0.592592,-0.07043 0.592592,-1.843537 0,-2.191697 0.312844,-2.698398 1.666026,-2.698398 0.830313,0 0.901875,0.08191 0.901875,1.032258 0,0.904455 -0.0856,1.032258 -0.691358,1.032258 -0.636488,0 -0.691358,0.09831 -0.691358,1.23871 0,1.140399 0.05487,1.238709 0.691358,1.238709 0.605762,0 0.691358,0.127804 0.691358,1.032258 0,0.904455 -0.0856,1.032258 -0.691358,1.032258 h -0.691358 v 4.541936 4.541935 h -0.592592 -0.592593 z m 9.876543,0 c 0,-3.762007 -0.05088,-4.541936 -0.296296,-4.541936 -0.184362,0 -0.296296,-0.389964 -0.296296,-1.032258 0,-0.925371 0.08011,-1.032258 0.773662,-1.032258 0.425515,0 0.808861,0.220726 0.851881,0.490502 0.05547,0.347864 0.216644,0.287829 0.55424,-0.206452 0.707461,-1.035807 1.178241,-0.901832 1.178241,0.335305 0,0.664674 -0.110921,1.032258 -0.311491,1.032258 -0.17132,0 -0.57132,0.543127 -0.888888,1.206948 -0.548417,1.146368 -0.577398,1.384703 -0.577398,4.748387 0,3.502267 -0.0055,3.541439 -0.493828,3.541439 h -0.493827 z"
         id="path2" />
    </g>
  </g>
</svg>
