<svg xmlns="http://www.w3.org/2000/svg" width="302" height="167" viewBox="0 0 302 167">
<g>
<path d="M 107.48 76.72 C107.60,77.38 107.72,77.91 107.86,78.34 C107.74,77.99 107.62,77.57 107.51,77.07 C107.15,75.39 106.93,72.55 107.02,70.76 C107.45,62.94 106.01,62.94 103.57,70.75 C101.41,77.68 100.44,79.00 97.51,79.00 C95.79,79.00 94.89,78.00 93.64,74.72 C92.74,72.36 92.00,69.94 92.00,69.34 C92.00,68.74 91.32,67.68 90.50,67.00 C89.20,65.92 89.00,66.53 89.00,71.68 C89.00,74.03 88.81,75.85 88.42,77.19 C88.14,77.04 87.56,77.00 86.62,77.00 C84.00,77.00 84.00,77.00 84.00,68.58 C84.00,62.75 84.38,60.03 85.25,59.72 C85.94,59.47 86.14,58.89 85.70,58.42 C85.64,58.36 85.58,58.30 85.53,58.26 C86.29,58.08 87.28,58.00 88.53,58.00 L 92.84 58.00 L 95.01 64.54 C97.47,71.94 98.80,71.98 100.94,64.76 C102.68,58.92 103.65,58.00 108.10,58.00 C112.84,58.00 113.21,59.04 112.80,71.00 C112.69,74.17 112.59,76.17 112.38,77.44 C112.03,77.18 111.44,77.00 110.58,77.00 C108.19,77.00 107.99,76.65 107.85,72.25 C107.75,69.00 107.56,68.42 107.27,70.41 C107.03,72.01 107.12,74.85 107.48,76.72 ZM 158.00 108.57 C158.00,109.41 158.53,109.85 159.27,109.99 L 158.00 110.13 L 158.00 88.00 L 166.94 88.00 C175.05,88.00 176.03,88.21 177.44,90.22 C179.69,93.43 179.36,96.73 176.50,99.59 C173.41,102.69 173.40,103.09 176.47,105.97 C177.09,106.56 177.62,107.18 177.97,107.72 C177.78,107.60 177.56,107.50 177.31,107.42 C176.32,107.11 174.67,106.40 173.65,105.86 C171.85,104.88 171.85,104.93 173.65,107.40 C175.55,110.01 177.37,110.65 178.43,109.11 C178.42,109.12 178.42,109.13 178.41,109.15 C177.14,111.19 173.32,109.75 169.80,105.91 C165.62,101.33 163.77,101.22 163.58,105.59 C163.45,105.23 163.25,105.00 162.99,105.00 C162.45,105.00 162.00,105.45 162.00,106.00 C162.00,106.55 161.10,107.00 160.00,107.00 C158.85,107.00 158.00,107.67 158.00,108.57 ZM 142.00 69.00 L 142.00 58.00 L 150.94 58.00 C159.05,58.00 160.03,58.21 161.44,60.22 C163.82,63.61 163.33,66.81 159.99,69.86 L 156.98 72.61 L 159.96 75.46 C160.86,76.33 161.51,77.07 161.90,77.67 C161.73,77.57 161.53,77.49 161.31,77.42 C160.32,77.11 158.67,76.40 157.65,75.86 C155.85,74.88 155.85,74.93 157.65,77.40 C158.77,78.94 159.87,79.79 160.79,79.92 C160.43,79.97 159.99,80.00 159.49,80.00 C157.90,80.00 156.02,78.66 153.88,76.00 C151.35,72.85 149.41,71.56 148.53,72.29 C148.73,71.97 148.98,71.72 149.25,71.60 C149.94,71.29 149.60,71.14 148.50,71.28 C147.14,71.44 146.40,72.39 146.18,74.26 C145.96,76.19 145.30,77.00 143.93,77.00 C143.19,77.00 142.54,77.33 142.22,77.81 C142.03,76.24 142.00,73.56 142.00,69.00 ZM 215.00 78.50 C215.00,79.29 215.34,79.73 216.08,79.85 C214.71,79.81 213.94,79.17 213.20,77.55 C212.17,75.28 211.46,75.00 206.68,75.00 C201.93,75.00 201.19,75.29 200.18,77.50 C200.03,77.83 199.82,78.14 199.58,78.42 C199.46,78.16 199.13,78.00 198.63,78.00 C197.81,78.00 196.48,77.34 195.67,76.53 C195.09,75.95 194.72,75.63 194.44,75.57 C195.18,73.56 196.31,70.89 197.62,68.06 L 202.29 58.00 L 210.72 58.00 L 214.79 66.89 C217.61,73.05 218.96,76.21 219.10,77.87 C218.69,77.56 218.01,77.29 217.25,77.18 C215.70,76.96 215.00,77.37 215.00,78.50 ZM 223.00 69.14 C223.00,64.08 223.06,61.30 223.33,59.74 C223.51,59.90 223.74,60.00 224.00,60.00 C224.55,60.00 225.00,59.55 225.00,59.00 C225.00,58.50 224.63,58.09 224.16,58.01 C224.33,57.90 224.53,57.83 224.75,57.78 C228.48,57.01 230.67,58.34 234.34,63.59 C236.43,66.58 238.56,68.77 239.07,68.46 C239.58,68.14 240.00,65.66 240.00,62.94 C240.00,61.22 240.02,60.10 240.17,59.36 C240.54,59.74 241.45,60.00 242.50,60.00 C243.88,60.00 245.00,59.55 245.00,59.00 C245.00,58.45 243.89,58.01 242.53,58.00 L 245.07 58.00 L 244.78 68.75 L 244.56 77.32 C244.34,77.12 244.00,77.00 243.58,77.00 C242.71,77.00 242.00,77.71 242.00,78.58 C242.00,79.16 242.23,79.52 242.57,79.67 L 241.50 79.77 C238.87,80.00 238.06,79.37 235.00,74.77 C233.07,71.87 231.32,69.05 231.10,68.50 C230.88,67.95 230.21,67.18 229.60,66.78 C228.85,66.29 228.34,68.21 228.00,72.78 C227.84,74.99 227.69,76.49 227.48,77.52 C227.15,77.21 226.52,77.00 225.58,77.00 C224.33,77.00 223.51,77.30 223.18,77.88 C223.01,76.34 223.00,73.67 223.00,69.14 ZM 55.62 75.51 C56.12,74.17 56.79,72.59 57.54,70.95 C59.41,66.85 61.39,62.26 61.92,60.75 C62.79,58.31 63.39,58.00 67.34,58.00 L 71.78 58.00 L 76.14 68.21 C77.97,72.51 79.55,76.35 80.19,78.05 C79.67,77.66 78.55,77.31 77.25,77.19 C75.58,77.03 74.47,77.25 74.09,77.72 C73.16,75.57 71.62,75.03 66.87,75.02 C63.34,75.00 62.15,75.36 60.93,77.02 C60.84,76.55 60.03,76.46 58.50,76.76 C56.84,77.07 55.98,76.78 55.93,75.87 C55.91,75.47 55.79,75.36 55.62,75.51 ZM 133.64 107.36 C133.60,105.31 133.65,101.92 133.79,98.25 L 134.13 89.49 C134.30,89.79 134.63,90.00 135.00,90.00 C135.55,90.00 136.00,89.55 136.00,89.00 C136.00,88.45 135.55,88.00 135.00,88.00 L 142.44 88.00 C151.54,88.00 153.28,88.94 154.26,94.40 C154.65,96.57 154.19,97.90 152.44,99.65 C150.27,101.82 148.88,102.20 142.00,102.47 C139.94,102.55 139.41,103.17 139.00,106.03 C138.91,106.65 138.81,107.17 138.68,107.61 C138.37,107.21 137.49,107.00 136.08,107.00 C134.98,107.00 134.16,107.12 133.64,107.36 ZM 106.61 89.44 C106.92,90.23 107.80,90.63 108.58,90.33 C109.90,89.82 109.70,88.68 108.58,88.21 L 108.98 88.17 C111.73,87.91 112.94,88.39 114.68,90.42 C117.44,93.62 118.06,93.63 121.00,90.50 C123.08,88.29 129.00,86.87 129.00,88.58 C129.00,88.61 128.98,88.67 128.95,88.74 C128.78,88.32 128.22,88.00 127.56,88.00 C126.77,88.00 125.84,88.45 125.50,89.00 C125.16,89.55 125.81,90.00 126.94,90.00 C127.48,90.00 127.97,89.90 128.33,89.73 C127.70,90.66 126.66,92.02 125.50,93.43 C123.57,95.78 122.00,98.06 122.00,98.49 C122.00,98.92 123.82,101.25 126.04,103.66 C128.27,106.08 129.82,108.49 129.48,109.02 C128.17,111.14 124.27,109.89 121.13,106.35 L 117.90 102.69 L 114.16 106.35 C111.55,108.89 109.46,110.10 108.00,109.95 C108.52,109.87 109.01,109.41 109.33,108.58 C109.63,107.80 109.24,106.92 108.47,106.63 C108.01,106.45 107.57,106.45 107.21,106.57 C107.60,105.96 108.10,105.30 108.69,104.66 C111.93,101.14 113.43,99.62 113.37,98.16 C113.32,96.89 112.11,95.67 109.87,93.25 L 105.50 88.50 L 106.63 88.39 C106.47,88.65 106.45,89.01 106.61,89.44 ZM 231.13 108.66 C229.46,106.65 230.78,106.00 236.54,106.00 C239.89,106.00 242.19,105.48 242.96,104.54 C244.95,102.15 243.20,101.00 237.60,101.00 C233.74,101.00 231.86,100.50 230.65,99.17 C228.57,96.87 228.50,90.66 230.54,88.97 C232.55,87.30 244.67,86.66 245.61,88.17 C246.69,89.92 243.03,92.00 238.87,92.00 C234.68,92.00 233.22,93.35 235.04,95.54 C235.82,96.49 238.13,97.00 241.59,97.00 C245.85,97.00 247.14,97.39 247.96,98.93 C249.64,102.06 249.17,104.92 246.55,107.55 C244.49,109.60 243.12,110.00 238.17,110.00 C234.43,110.00 231.83,109.50 231.13,108.66 ZM 83.21 107.47 C82.86,104.17 83.00,97.31 83.64,92.64 L 84.08 89.39 C84.23,89.75 84.59,90.00 85.00,90.00 C85.55,90.00 86.00,89.55 86.00,89.00 C86.00,88.45 85.55,88.00 85.00,88.00 L 92.64 88.00 C98.79,88.00 100.93,88.33 100.75,89.25 C100.33,91.34 98.72,91.97 93.68,91.98 C89.26,92.00 88.89,92.19 89.18,94.25 C89.46,96.21 90.18,96.54 94.75,96.80 C98.32,97.01 100.00,97.53 100.00,98.45 C100.00,100.20 97.76,101.00 92.85,101.00 C89.29,101.00 88.89,101.24 89.18,103.25 C89.46,105.21 90.18,105.54 94.75,105.80 C98.32,106.01 100.00,106.53 100.00,107.45 C100.00,108.18 99.29,109.06 98.42,109.39 C96.74,110.04 89.17,110.15 85.55,109.76 C85.83,109.52 86.00,109.09 86.00,108.50 C86.00,107.68 85.32,107.00 84.50,107.00 C83.89,107.00 83.45,107.18 83.21,107.47 ZM 208.13 108.66 C206.46,106.65 207.78,106.00 213.54,106.00 C216.89,106.00 219.19,105.48 219.96,104.54 C221.95,102.15 220.20,101.00 214.60,101.00 C210.74,101.00 208.86,100.50 207.65,99.17 C205.73,97.05 205.45,90.95 207.20,89.20 C208.64,87.76 223.00,87.55 223.00,88.96 C223.00,90.52 219.41,92.00 215.62,92.00 C211.79,92.00 210.66,92.96 211.60,95.41 C212.06,96.59 213.59,97.00 217.54,97.00 C223.66,97.00 226.00,98.66 226.00,103.00 C226.00,107.45 222.00,110.00 214.99,110.00 C211.40,110.00 208.83,109.50 208.13,108.66 ZM 120.39 79.23 C119.76,78.82 119.06,74.26 118.78,68.80 C118.48,63.02 118.24,60.33 119.47,59.08 C120.63,57.90 123.10,58.00 128.08,58.00 C133.33,58.00 135.00,58.34 135.00,59.39 C135.00,61.20 132.80,62.00 127.85,62.00 C124.29,62.00 123.89,62.24 124.18,64.25 C124.46,66.22 125.23,66.56 130.27,67.00 C138.98,67.75 137.70,70.96 128.68,70.98 C124.26,71.00 123.89,71.19 124.18,73.25 C124.46,75.21 125.18,75.54 129.75,75.80 C133.32,76.01 135.00,76.53 135.00,77.45 C135.00,78.18 134.29,79.06 133.42,79.39 C131.21,80.24 121.74,80.12 120.39,79.23 ZM 184.75 108.94 C183.28,108.07 183.00,106.39 183.00,98.56 C183.00,93.11 182.92,90.47 184.19,89.20 C185.47,87.92 188.12,88.00 193.58,88.00 C198.98,88.00 200.93,88.34 200.75,89.25 C200.33,91.34 198.72,91.97 193.75,91.98 C189.35,92.00 189.00,92.19 189.00,94.50 C189.00,96.91 189.24,97.00 195.41,97.00 C199.54,97.00 201.06,97.13 201.47,97.83 C201.07,97.23 199.64,97.27 195.66,97.66 C188.11,98.42 187.09,99.00 193.33,99.00 C195.99,99.00 198.00,99.46 198.00,100.07 C198.00,100.28 198.05,100.45 198.13,100.58 C197.32,100.67 196.32,100.74 195.10,100.80 C189.33,101.08 188.90,101.26 189.19,103.30 C189.46,105.20 190.21,105.54 194.81,105.80 C199.18,106.05 200.07,106.41 199.80,107.80 C199.54,109.16 198.18,109.55 192.99,109.74 C189.42,109.88 185.71,109.52 184.75,108.94 ZM 182.36 79.01 C178.71,77.54 177.00,74.00 177.00,67.95 C177.00,60.13 179.32,58.00 187.81,58.00 C192.23,58.00 193.93,58.36 193.75,59.25 C193.37,61.17 191.80,61.97 188.40,61.98 C184.57,62.00 182.00,64.69 182.00,68.67 C182.00,72.31 184.69,75.00 188.33,75.00 C188.55,75.00 188.75,75.00 188.94,75.01 C187.29,75.12 186.00,76.88 186.00,79.08 C186.00,80.77 188.91,80.02 189.96,78.07 C188.87,80.10 185.95,80.46 182.36,79.01 ZM 167.00 68.50 C167.00,63.64 167.03,60.82 167.22,59.19 C167.56,59.67 168.22,60.00 169.00,60.00 C170.84,60.00 171.00,60.67 171.00,68.50 C171.00,76.33 170.84,77.00 169.00,77.00 C168.22,77.00 167.56,77.33 167.22,77.81 C167.03,76.18 167.00,73.36 167.00,68.50 ZM 147.99 96.51 C150.23,93.82 148.43,92.00 143.53,92.00 C139.45,92.00 139.00,92.23 139.00,94.33 C139.00,95.62 139.30,96.97 139.67,97.33 C140.91,98.58 146.75,98.01 147.99,96.51 ZM 156.29 66.23 C158.79,63.47 156.99,61.82 151.90,62.19 C147.49,62.50 147.34,62.68 147.88,67.00 C148.09,68.71 154.58,68.12 156.29,66.23 ZM 172.29 96.23 C174.79,93.47 172.99,91.82 167.90,92.19 C163.42,92.51 162.25,93.99 164.31,96.75 C165.68,98.58 170.44,98.27 172.29,96.23 ZM 208.75 69.85 C209.61,68.99 209.52,67.97 208.36,65.74 C206.61,62.35 205.35,63.01 204.39,67.78 C203.85,70.51 204.04,71.00 205.68,71.00 C206.73,71.00 208.12,70.48 208.75,69.85 ZM 69.29 67.59 C68.96,63.04 67.39,62.34 65.54,65.91 C63.66,69.55 64.28,71.24 67.34,70.81 C69.05,70.56 69.46,69.89 69.29,67.59 ZM 125.63 108.48 C125.97,109.37 126.89,109.96 127.68,109.80 C129.81,109.35 129.37,107.55 127.04,107.18 C125.52,106.94 125.17,107.27 125.63,108.48 ZM 77.58 79.60 C78.87,79.49 80.13,79.15 80.43,78.71 C80.48,78.84 80.50,78.93 80.50,78.96 C80.50,79.65 79.07,79.81 77.58,79.60 ZM 83.04 66.93 C83.07,63.54 83.26,60.48 83.61,59.58 C83.71,59.32 83.86,59.10 84.09,58.90 C83.48,60.24 83.10,63.03 83.04,66.93 ZM 161.23 109.75 C162.14,109.42 163.00,108.79 163.42,107.97 C163.19,109.17 162.62,109.54 161.23,109.75 ZM 196.96 79.96 C195.61,80.29 194.25,80.08 193.60,79.15 C194.07,79.79 195.57,80.05 196.96,79.96 ZM 244.52 78.74 L 244.50 79.50 L 243.66 79.57 C243.98,79.41 244.29,79.12 244.52,78.74 ZM 172.57 61.53 C172.87,63.26 173.00,65.55 173.00,68.50 C173.00,71.45 172.87,73.74 172.57,75.47 C172.83,73.60 173.00,71.03 173.00,68.50 C173.00,65.97 172.83,63.40 172.57,61.53 ZM 171.30 78.93 C170.71,79.67 169.94,80.00 168.96,80.00 C168.68,80.00 168.44,79.98 168.23,79.91 C169.16,80.10 170.42,79.75 171.30,78.93 ZM 168.23 57.09 C168.44,57.02 168.68,57.00 168.96,57.00 C169.94,57.00 170.71,57.33 171.30,58.07 C170.42,57.25 169.16,56.90 168.23,57.09 ZM 87.55 78.99 C87.00,79.67 86.30,80.00 85.42,80.00 C85.05,80.00 84.64,79.68 84.29,79.19 C85.09,80.23 86.32,80.19 87.55,78.99 ZM 54.62 79.20 C54.59,79.15 54.58,79.06 54.59,78.92 C54.61,79.06 54.64,79.17 54.68,79.25 C55.03,79.85 56.03,80.07 57.10,79.95 C56.05,80.17 55.09,79.96 54.62,79.20 ZM 83.63 77.75 C83.25,76.34 83.05,72.54 83.03,68.76 C83.06,72.65 83.32,76.59 83.63,77.75 ZM 134.17 88.44 L 134.19 88.00 L 135.00 88.00 C134.66,88.00 134.35,88.18 134.17,88.44 ZM 84.22 88.38 L 84.27 88.00 L 85.00 88.00 C84.69,88.00 84.40,88.15 84.22,88.38 ZM 137.59 109.36 C137.26,109.59 136.85,109.74 136.34,109.81 C136.13,109.84 135.92,109.86 135.71,109.86 C136.36,109.81 137.04,109.63 137.59,109.36 ZM 226.30 79.54 C226.02,79.68 225.67,79.76 225.25,79.82 C224.73,79.89 224.34,79.94 224.03,79.83 C224.34,79.89 224.72,79.89 225.17,79.82 C225.60,79.76 225.98,79.66 226.30,79.54 ZM 240.80 58.27 C241.16,58.04 241.70,58.00 242.47,58.00 C241.82,58.00 241.24,58.11 240.80,58.27 ZM 109.85 79.85 C109.97,79.85 110.10,79.83 110.23,79.81 C110.64,79.75 111.01,79.66 111.32,79.54 C111.06,79.68 110.73,79.75 110.34,79.81 C110.17,79.83 110.00,79.85 109.85,79.85 ZM 143.96 80.00 C143.56,80.00 143.24,79.96 142.98,79.80 C143.27,79.93 143.61,80.00 143.96,80.00 ZM 201.60 98.32 C201.60,98.45 201.59,98.59 201.57,98.75 C201.53,99.00 201.46,99.22 201.35,99.41 C201.46,99.21 201.53,99.00 201.56,98.77 C201.59,98.60 201.60,98.45 201.60,98.32 ZM 190.68 76.62 C190.52,77.00 190.28,77.48 189.96,78.07 C190.28,77.48 190.52,77.00 190.68,76.62 ZM 106.45 108.91 C106.43,108.89 106.42,108.87 106.41,108.85 C106.43,108.88 106.45,108.92 106.48,108.96 C106.47,108.94 106.46,108.93 106.45,108.91 ZM 193.54 79.06 C193.53,79.05 193.53,79.04 193.52,79.03 C193.53,79.05 193.54,79.06 193.55,79.08 C193.54,79.07 193.54,79.06 193.54,79.06 Z" fill="rgba(4,110,206,1)"/>
<path d="M 83.67 109.33 C82.52,108.18 82.94,107.00 84.50,107.00 C85.32,107.00 86.00,107.68 86.00,108.50 C86.00,110.06 84.82,110.48 83.67,109.33 ZM 106.50 109.00 C105.59,107.52 106.85,106.00 108.47,106.63 C109.24,106.92 109.63,107.80 109.33,108.58 C108.70,110.23 107.38,110.43 106.50,109.00 ZM 125.63 108.48 C125.17,107.27 125.52,106.94 127.04,107.18 C129.37,107.55 129.81,109.35 127.68,109.80 C126.89,109.96 125.97,109.37 125.63,108.48 ZM 133.71 109.38 C132.22,107.89 133.11,107.00 136.08,107.00 C138.10,107.00 139.02,107.43 138.76,108.25 C138.29,109.67 134.78,110.45 133.71,109.38 ZM 158.00 108.57 C158.00,107.67 158.85,107.00 160.00,107.00 C161.10,107.00 162.00,106.55 162.00,106.00 C162.00,105.45 162.45,105.00 162.99,105.00 C163.54,105.00 163.84,106.01 163.65,107.25 C163.24,109.98 158.00,111.20 158.00,108.57 ZM 173.65 107.40 C171.85,104.93 171.85,104.88 173.65,105.86 C174.67,106.40 176.32,107.11 177.31,107.42 C178.31,107.73 178.85,108.44 178.50,108.99 C177.46,110.68 175.60,110.07 173.65,107.40 ZM 198.00 100.07 C198.00,99.46 195.99,99.00 193.33,99.00 C187.09,99.00 188.11,98.42 195.66,97.66 C201.12,97.12 201.79,97.25 201.56,98.77 C201.29,100.64 198.00,101.84 198.00,100.07 ZM 106.61 89.44 C106.30,88.61 106.66,88.00 107.47,88.00 C109.47,88.00 110.27,89.68 108.58,90.33 C107.80,90.63 106.92,90.23 106.61,89.44 ZM 84.00 89.00 C84.00,88.45 84.45,88.00 85.00,88.00 C85.55,88.00 86.00,88.45 86.00,89.00 C86.00,89.55 85.55,90.00 85.00,90.00 C84.45,90.00 84.00,89.55 84.00,89.00 ZM 125.50 89.00 C125.84,88.45 126.77,88.00 127.56,88.00 C128.35,88.00 129.00,88.45 129.00,89.00 C129.00,89.55 128.07,90.00 126.94,90.00 C125.81,90.00 125.16,89.55 125.50,89.00 ZM 134.00 89.00 C134.00,88.45 134.45,88.00 135.00,88.00 C135.55,88.00 136.00,88.45 136.00,89.00 C136.00,89.55 135.55,90.00 135.00,90.00 C134.45,90.00 134.00,89.55 134.00,89.00 ZM 54.68 79.25 C54.45,78.84 54.61,77.60 55.05,76.50 C55.50,75.40 55.89,75.11 55.93,75.87 C55.98,76.78 56.84,77.07 58.50,76.76 C61.23,76.23 61.67,76.93 59.80,78.80 C58.46,80.14 55.36,80.41 54.68,79.25 ZM 74.52 79.18 C73.12,77.79 74.33,76.90 77.25,77.19 C79.04,77.36 80.50,77.95 80.50,78.50 C80.50,79.53 75.44,80.11 74.52,79.18 ZM 83.63 77.75 C83.30,76.51 83.03,72.12 83.03,68.00 C83.03,60.62 84.11,56.73 85.70,58.42 C86.14,58.89 85.94,59.47 85.25,59.72 C84.38,60.03 84.00,62.75 84.00,68.58 C84.00,77.00 84.00,77.00 86.62,77.00 C88.84,77.00 89.05,77.23 88.00,78.50 C86.20,80.67 84.33,80.34 83.63,77.75 ZM 107.48 76.72 C107.12,74.85 107.03,72.01 107.27,70.41 C107.56,68.42 107.75,69.00 107.85,72.25 C107.99,76.65 108.19,77.00 110.58,77.00 C113.68,77.00 113.39,79.35 110.23,79.81 C108.52,80.06 107.99,79.47 107.48,76.72 ZM 142.00 78.50 C142.00,77.68 142.87,77.00 143.93,77.00 C145.30,77.00 145.96,76.19 146.18,74.26 C146.40,72.39 147.14,71.44 148.50,71.28 C149.60,71.14 149.94,71.29 149.25,71.60 C148.56,71.91 148.00,73.06 148.00,74.15 C148.00,77.27 146.11,80.00 143.96,80.00 C142.88,80.00 142.00,79.32 142.00,78.50 ZM 157.65 77.40 C155.85,74.93 155.85,74.88 157.65,75.86 C158.67,76.40 160.32,77.11 161.31,77.42 C162.31,77.73 162.85,78.44 162.50,78.99 C161.46,80.68 159.60,80.07 157.65,77.40 ZM 167.00 78.50 C167.00,77.67 167.89,77.00 169.00,77.00 C170.84,77.00 171.00,76.33 171.00,68.50 C171.00,60.67 170.84,60.00 169.00,60.00 C167.89,60.00 167.00,59.33 167.00,58.50 C167.00,56.33 170.75,56.66 171.96,58.93 C172.53,60.00 173.00,64.30 173.00,68.50 C173.00,72.70 172.53,77.00 171.96,78.07 C170.75,80.34 167.00,80.67 167.00,78.50 ZM 186.00 79.08 C186.00,76.80 187.37,75.00 189.11,75.00 C191.28,75.00 191.39,75.40 189.96,78.07 C188.92,80.02 186.00,80.77 186.00,79.08 ZM 193.56 79.09 C193.25,78.59 193.26,77.48 193.59,76.62 C194.12,75.24 194.37,75.23 195.67,76.53 C196.48,77.34 197.81,78.00 198.63,78.00 C199.45,78.00 199.84,78.45 199.50,79.00 C198.73,80.25 194.31,80.32 193.56,79.09 ZM 215.00 78.50 C215.00,77.37 215.70,76.96 217.25,77.18 C218.49,77.36 219.50,77.95 219.50,78.50 C219.50,79.05 218.49,79.64 217.25,79.82 C215.70,80.04 215.00,79.63 215.00,78.50 ZM 223.00 78.57 C223.00,77.55 223.90,77.00 225.58,77.00 C228.72,77.00 228.37,79.35 225.17,79.82 C223.73,80.03 223.00,79.61 223.00,78.57 ZM 242.00 78.58 C242.00,77.71 242.71,77.00 243.58,77.00 C244.45,77.00 244.99,77.53 244.77,78.19 C244.15,80.04 242.00,80.35 242.00,78.58 ZM 223.00 59.00 C223.00,58.45 223.45,58.00 224.00,58.00 C224.55,58.00 225.00,58.45 225.00,59.00 C225.00,59.55 224.55,60.00 224.00,60.00 C223.45,60.00 223.00,59.55 223.00,59.00 ZM 240.00 59.00 C240.00,58.45 241.12,58.00 242.50,58.00 C243.88,58.00 245.00,58.45 245.00,59.00 C245.00,59.55 243.88,60.00 242.50,60.00 C241.12,60.00 240.00,59.55 240.00,59.00 Z" fill="rgba(8,110,206,1)"/>
</g>
</svg>